<?xml version="1.0" encoding="UTF-8" standalone="no"?>
<svg
   xmlns:dc="http://purl.org/dc/elements/1.1/"
   xmlns:cc="http://creativecommons.org/ns#"
   xmlns:rdf="http://www.w3.org/1999/02/22-rdf-syntax-ns#"
   xmlns:svg="http://www.w3.org/2000/svg"
   xmlns="http://www.w3.org/2000/svg"
   xmlns:xlink="http://www.w3.org/1999/xlink"
   xmlns:sodipodi="http://sodipodi.sourceforge.net/DTD/sodipodi-0.dtd"
   xmlns:inkscape="http://www.inkscape.org/namespaces/inkscape"
   width="210mm"
   height="297mm"
   viewBox="0 0 210 297"
   version="1.1"
   id="svg8"
   inkscape:version="1.0.1 (3bc2e813f5, 2020-09-07)"
   sodipodi:docname="wektor.svg">
  <defs
     id="defs2" />
  <sodipodi:namedview
     id="base"
     pagecolor="#ffffff"
     bordercolor="#666666"
     borderopacity="1.0"
     inkscape:pageopacity="0.0"
     inkscape:pageshadow="2"
     inkscape:zoom="0.98994949"
     inkscape:cx="393.64058"
     inkscape:cy="431.01861"
     inkscape:document-units="mm"
     inkscape:current-layer="layer1"
     inkscape:document-rotation="0"
     showgrid="false"
     inkscape:window-width="1346"
     inkscape:window-height="1040"
     inkscape:window-x="100"
     inkscape:window-y="0"
     inkscape:window-maximized="0" />
  <metadata
     id="metadata5">
    <rdf:RDF>
      <cc:Work
         rdf:about="">
        <dc:format>image/svg+xml</dc:format>
        <dc:type
           rdf:resource="http://purl.org/dc/dcmitype/StillImage" />
        <dc:title></dc:title>
      </cc:Work>
    </rdf:RDF>
  </metadata>
  <g
     inkscape:label="Layer 1"
     inkscape:groupmode="layer"
     id="layer1">
    <g
       aria-label="B"
       transform="matrix(6.5254459,0,0,7.0748447,-175.03817,-323.84156)"
       id="text32"
       style="font-style:normal;font-weight:normal;font-size:10.5833px;line-height:1.25;font-family:sans-serif;white-space:pre;inline-size:17.5678;fill:#000000;fill-opacity:1;stroke:none;stroke-width:0.264583" />
    <g
       aria-label="B"
       transform="matrix(0.99336728,0,0,1.006677,-62.187255,14.722076)"
       id="text36"
       style="font-style:normal;font-weight:normal;font-size:75.4087px;line-height:1.25;font-family:sans-serif;fill:#000000;fill-opacity:1;stroke:none;stroke-width:1.88522" />
    <rect
       style="fill:#00b0d5;fill-rule:evenodd;stroke-width:0.264583;fill-opacity:1"
       id="rect1002"
       width="206.33208"
       height="41.159508"
       x="2.1381562"
       y="66.817383" />
    <path
       id="rect1004"
       style="fill:#00ff00;fill-opacity:1;stroke-width:0.999999"
       transform="scale(0.26458333)"
       d="M 82.679688,357.59375 A 27.27412,18.687823 0 0 0 61.46875,364.66602 H 80.8125 v 30.25195 a 27.27412,18.687823 0 0 0 2.019531,0.0508 27.27412,18.687823 0 0 0 27.275389,-18.6875 27.27412,18.687823 0 0 0 -27.275389,-18.6875 27.27412,18.687823 0 0 0 -0.152343,0 z M 80.8125,394.91797 A 27.27412,18.687823 0 0 1 55.558594,376.28125 27.27412,18.687823 0 0 1 61.46875,364.66602 H 27.273438 V 398 H 80.8125 Z" />
    <path
       id="rect1006"
       style="fill:#00ff00;fill-opacity:1;stroke-width:0.999999"
       d="M 680.84375 280.82227 L 680.84375 296.90234 A 22.728431 21.718278 0 0 1 687.4082 295.97461 A 22.728431 21.718278 0 0 1 710.13672 317.69336 A 22.728431 21.718278 0 0 1 709.63477 322.23828 L 739.43164 322.23828 L 739.43164 280.82227 L 680.84375 280.82227 z M 709.63477 322.23828 L 680.84375 322.23828 L 680.84375 296.90234 A 22.728431 21.718278 0 0 0 664.67969 317.69336 A 22.728431 21.718278 0 0 0 687.4082 339.41211 A 22.728431 21.718278 0 0 0 709.63477 322.23828 z "
       transform="scale(0.26458333)" />
    <path
       style="fill:none;stroke:#000000;stroke-width:0.264583px;stroke-linecap:butt;stroke-linejoin:miter;stroke-opacity:1"
       d="M 29.399648,91.673446 C 168.64707,90.06983 168.64707,72.69731 168.64707,72.69731"
       id="path1018" />
    <text
       xml:space="preserve"
       style="font-style:normal;font-weight:normal;font-size:10.5833px;line-height:1.25;font-family:sans-serif;fill:#000000;fill-opacity:1;stroke:none;stroke-width:0.264583"
       id="text1022"><textPath
         xlink:href="#path1018"
         id="textPath1067"><tspan
           id="tspan1020"
           style="stroke-width:0.264583">Dzialania matematyczn</tspan></textPath></text>
  </g>
</svg>
